P3
2 2
 255
0 0 0  255 0 0   
255 255 255  254 255 255  
 
